<mxfile host="Electron" modified="2023-09-30T23:08:32.056Z" agent="Mozilla/5.0 (Windows NT 10.0; Win64; x64) AppleWebKit/537.36 (KHTML, like Gecko) draw.io/21.7.5 Chrome/114.0.5735.289 Electron/25.8.1 Safari/537.36" etag="V6JyE4vKDJnJQyArfEBm" version="21.7.5" type="device">
  <diagram name="Página-1" id="MD9SgTxMCwI9vUQNmRWv">
    <mxGraphModel dx="3033" dy="1298" grid="1" gridSize="10" guides="0" tooltips="1" connect="1" arrows="1" fold="1" page="1" pageScale="1" pageWidth="827" pageHeight="1169" math="0" shadow="0">
      <root>
        <mxCell id="0" />
        <mxCell id="1" parent="0" />
        <mxCell id="U6j0AtZgXaEGs56DfAOz-12" value="ADM" style="swimlane;fontStyle=0;childLayout=stackLayout;horizontal=1;startSize=26;fillColor=none;horizontalStack=0;resizeParent=1;resizeParentMax=0;resizeLast=0;collapsible=1;marginBottom=0;whiteSpace=wrap;html=1;" parent="1" vertex="1">
          <mxGeometry x="150" y="240" width="210" height="80" as="geometry" />
        </mxCell>
        <mxCell id="U6j0AtZgXaEGs56DfAOz-13" value="PK&amp;nbsp; COD_ADM (varchar)" style="text;strokeColor=none;fillColor=none;align=left;verticalAlign=top;spacingLeft=4;spacingRight=4;overflow=hidden;rotatable=0;points=[[0,0.5],[1,0.5]];portConstraint=eastwest;whiteSpace=wrap;html=1;" parent="U6j0AtZgXaEGs56DfAOz-12" vertex="1">
          <mxGeometry y="26" width="210" height="26" as="geometry" />
        </mxCell>
        <mxCell id="U6j0AtZgXaEGs56DfAOz-14" value="FK COD_VENDEDOR (varchar)" style="text;strokeColor=none;fillColor=none;align=left;verticalAlign=top;spacingLeft=4;spacingRight=4;overflow=hidden;rotatable=0;points=[[0,0.5],[1,0.5]];portConstraint=eastwest;whiteSpace=wrap;html=1;" parent="U6j0AtZgXaEGs56DfAOz-12" vertex="1">
          <mxGeometry y="52" width="210" height="28" as="geometry" />
        </mxCell>
        <mxCell id="U6j0AtZgXaEGs56DfAOz-21" value="USUÁRIO" style="swimlane;fontStyle=0;childLayout=stackLayout;horizontal=1;startSize=26;fillColor=none;horizontalStack=0;resizeParent=1;resizeParentMax=0;resizeLast=0;collapsible=1;marginBottom=0;whiteSpace=wrap;html=1;" parent="1" vertex="1">
          <mxGeometry x="290" y="80" width="210" height="100" as="geometry" />
        </mxCell>
        <mxCell id="U6j0AtZgXaEGs56DfAOz-22" value="PK&amp;nbsp; COD_USUARIO(varchar)" style="text;strokeColor=none;fillColor=none;align=left;verticalAlign=top;spacingLeft=4;spacingRight=4;overflow=hidden;rotatable=0;points=[[0,0.5],[1,0.5]];portConstraint=eastwest;whiteSpace=wrap;html=1;" parent="U6j0AtZgXaEGs56DfAOz-21" vertex="1">
          <mxGeometry y="26" width="210" height="26" as="geometry" />
        </mxCell>
        <mxCell id="U6j0AtZgXaEGs56DfAOz-23" value="LOGIN (varchar)&lt;br&gt;SENHA (varchar)" style="text;strokeColor=none;fillColor=none;align=left;verticalAlign=top;spacingLeft=4;spacingRight=4;overflow=hidden;rotatable=0;points=[[0,0.5],[1,0.5]];portConstraint=eastwest;whiteSpace=wrap;html=1;" parent="U6j0AtZgXaEGs56DfAOz-21" vertex="1">
          <mxGeometry y="52" width="210" height="48" as="geometry" />
        </mxCell>
        <mxCell id="U6j0AtZgXaEGs56DfAOz-29" style="edgeStyle=orthogonalEdgeStyle;rounded=0;orthogonalLoop=1;jettySize=auto;html=1;exitX=1;exitY=1;exitDx=0;exitDy=0;entryX=0.002;entryY=1.177;entryDx=0;entryDy=0;entryPerimeter=0;" parent="1" source="U6j0AtZgXaEGs56DfAOz-25" target="U6j0AtZgXaEGs56DfAOz-22" edge="1">
          <mxGeometry relative="1" as="geometry">
            <Array as="points">
              <mxPoint x="260" y="137" />
            </Array>
          </mxGeometry>
        </mxCell>
        <mxCell id="U6j0AtZgXaEGs56DfAOz-25" value="1,N" style="text;html=1;strokeColor=none;fillColor=none;align=center;verticalAlign=middle;whiteSpace=wrap;rounded=0;" parent="1" vertex="1">
          <mxGeometry x="211" y="210" width="60" height="30" as="geometry" />
        </mxCell>
        <mxCell id="U6j0AtZgXaEGs56DfAOz-31" style="edgeStyle=orthogonalEdgeStyle;rounded=0;orthogonalLoop=1;jettySize=auto;html=1;exitX=0.5;exitY=0;exitDx=0;exitDy=0;" parent="1" source="U6j0AtZgXaEGs56DfAOz-26" target="U6j0AtZgXaEGs56DfAOz-22" edge="1">
          <mxGeometry relative="1" as="geometry" />
        </mxCell>
        <mxCell id="U6j0AtZgXaEGs56DfAOz-26" value="CLIENTE" style="swimlane;fontStyle=0;childLayout=stackLayout;horizontal=1;startSize=26;fillColor=none;horizontalStack=0;resizeParent=1;resizeParentMax=0;resizeLast=0;collapsible=1;marginBottom=0;whiteSpace=wrap;html=1;" parent="1" vertex="1">
          <mxGeometry x="440" y="240" width="210" height="172" as="geometry" />
        </mxCell>
        <mxCell id="U6j0AtZgXaEGs56DfAOz-27" value="PK&amp;nbsp; COD_CLIENTE (varchar)" style="text;strokeColor=none;fillColor=none;align=left;verticalAlign=top;spacingLeft=4;spacingRight=4;overflow=hidden;rotatable=0;points=[[0,0.5],[1,0.5]];portConstraint=eastwest;whiteSpace=wrap;html=1;" parent="U6j0AtZgXaEGs56DfAOz-26" vertex="1">
          <mxGeometry y="26" width="210" height="24" as="geometry" />
        </mxCell>
        <mxCell id="U6j0AtZgXaEGs56DfAOz-28" value="FK COD_PEDIDO_VENDA (varchar)&lt;br&gt;FK COD_USUARIO (varchar)&lt;br&gt;&amp;nbsp; &amp;nbsp; &amp;nbsp; NOME (varchar)&lt;br&gt;&amp;nbsp; &amp;nbsp; &amp;nbsp; CPF(varchar)&lt;br&gt;&amp;nbsp; &amp;nbsp; &amp;nbsp; EMAIL(varchar)&lt;br&gt;&amp;nbsp; &amp;nbsp; &amp;nbsp; ENDERECO(varchar)&lt;br&gt;&amp;nbsp; &amp;nbsp; &amp;nbsp; TELEFONE(varchar)" style="text;strokeColor=none;fillColor=none;align=left;verticalAlign=top;spacingLeft=4;spacingRight=4;overflow=hidden;rotatable=0;points=[[0,0.5],[1,0.5]];portConstraint=eastwest;whiteSpace=wrap;html=1;" parent="U6j0AtZgXaEGs56DfAOz-26" vertex="1">
          <mxGeometry y="50" width="210" height="122" as="geometry" />
        </mxCell>
        <mxCell id="U6j0AtZgXaEGs56DfAOz-32" value="1,1" style="text;html=1;strokeColor=none;fillColor=none;align=center;verticalAlign=middle;whiteSpace=wrap;rounded=0;" parent="1" vertex="1">
          <mxGeometry x="530" y="220" width="60" height="20" as="geometry" />
        </mxCell>
        <mxCell id="U6j0AtZgXaEGs56DfAOz-36" style="edgeStyle=orthogonalEdgeStyle;rounded=0;orthogonalLoop=1;jettySize=auto;html=1;exitX=0.5;exitY=0;exitDx=0;exitDy=0;entryX=0.497;entryY=0.964;entryDx=0;entryDy=0;entryPerimeter=0;" parent="1" source="U6j0AtZgXaEGs56DfAOz-33" target="U6j0AtZgXaEGs56DfAOz-14" edge="1">
          <mxGeometry relative="1" as="geometry" />
        </mxCell>
        <mxCell id="U6j0AtZgXaEGs56DfAOz-33" value="VENDEDOR" style="swimlane;fontStyle=0;childLayout=stackLayout;horizontal=1;startSize=26;fillColor=none;horizontalStack=0;resizeParent=1;resizeParentMax=0;resizeLast=0;collapsible=1;marginBottom=0;whiteSpace=wrap;html=1;" parent="1" vertex="1">
          <mxGeometry x="150" y="360" width="210" height="90" as="geometry" />
        </mxCell>
        <mxCell id="U6j0AtZgXaEGs56DfAOz-34" value="PK COD_VENDEDOR (varchar)&lt;br&gt;&amp;nbsp; &amp;nbsp; &amp;nbsp; NOME ( varchar)&lt;br&gt;&amp;nbsp; &amp;nbsp; &amp;nbsp; TELEFONE (varchar)&lt;br&gt;&amp;nbsp;" style="text;strokeColor=none;fillColor=none;align=left;verticalAlign=top;spacingLeft=4;spacingRight=4;overflow=hidden;rotatable=0;points=[[0,0.5],[1,0.5]];portConstraint=eastwest;whiteSpace=wrap;html=1;" parent="U6j0AtZgXaEGs56DfAOz-33" vertex="1">
          <mxGeometry y="26" width="210" height="64" as="geometry" />
        </mxCell>
        <mxCell id="U6j0AtZgXaEGs56DfAOz-38" value="LOJA_FISICA" style="swimlane;fontStyle=0;childLayout=stackLayout;horizontal=1;startSize=26;fillColor=none;horizontalStack=0;resizeParent=1;resizeParentMax=0;resizeLast=0;collapsible=1;marginBottom=0;whiteSpace=wrap;html=1;" parent="1" vertex="1">
          <mxGeometry x="-157" y="360" width="210" height="110" as="geometry" />
        </mxCell>
        <mxCell id="U6j0AtZgXaEGs56DfAOz-39" value="PK COD_LOJA_FISICA (varchar)&lt;br&gt;FK COD_VENDEDOR (varchar)&lt;br&gt;&amp;nbsp; &amp;nbsp; &amp;nbsp; NOME_LOJA (varchar)&lt;br&gt;&amp;nbsp; &amp;nbsp; &amp;nbsp; TELEFONE_LOJA (varchar)&lt;br&gt;&amp;nbsp; &amp;nbsp; &amp;nbsp; ENDERECO_LOJA(varchar)&lt;br&gt;&amp;nbsp;" style="text;strokeColor=none;fillColor=none;align=left;verticalAlign=top;spacingLeft=4;spacingRight=4;overflow=hidden;rotatable=0;points=[[0,0.5],[1,0.5]];portConstraint=eastwest;whiteSpace=wrap;html=1;" parent="U6j0AtZgXaEGs56DfAOz-38" vertex="1">
          <mxGeometry y="26" width="210" height="84" as="geometry" />
        </mxCell>
        <mxCell id="U6j0AtZgXaEGs56DfAOz-40" style="edgeStyle=orthogonalEdgeStyle;rounded=0;orthogonalLoop=1;jettySize=auto;html=1;exitX=1;exitY=0.5;exitDx=0;exitDy=0;entryX=0;entryY=0.5;entryDx=0;entryDy=0;" parent="1" source="U6j0AtZgXaEGs56DfAOz-39" target="U6j0AtZgXaEGs56DfAOz-34" edge="1">
          <mxGeometry relative="1" as="geometry" />
        </mxCell>
        <mxCell id="adgytlrcv17WKUZGUiQ2-1" style="edgeStyle=orthogonalEdgeStyle;rounded=0;orthogonalLoop=1;jettySize=auto;html=1;exitX=0.5;exitY=0;exitDx=0;exitDy=0;entryX=0.509;entryY=1.012;entryDx=0;entryDy=0;entryPerimeter=0;" parent="1" source="U6j0AtZgXaEGs56DfAOz-41" target="U6j0AtZgXaEGs56DfAOz-39" edge="1">
          <mxGeometry relative="1" as="geometry">
            <Array as="points">
              <mxPoint x="-50" y="550" />
            </Array>
          </mxGeometry>
        </mxCell>
        <mxCell id="U6j0AtZgXaEGs56DfAOz-41" value="RELATÓRIO" style="swimlane;fontStyle=0;childLayout=stackLayout;horizontal=1;startSize=26;fillColor=none;horizontalStack=0;resizeParent=1;resizeParentMax=0;resizeLast=0;collapsible=1;marginBottom=0;whiteSpace=wrap;html=1;" parent="1" vertex="1">
          <mxGeometry x="-190" y="550" width="270" height="124" as="geometry" />
        </mxCell>
        <mxCell id="U6j0AtZgXaEGs56DfAOz-42" value="PK COD_RELATORIO_VENDAS(varchar)&lt;br&gt;FK COD_PEDIDO_COMPRA(varchar)&lt;br&gt;FK COD_LOJA_FISICA (varchar)&lt;br&gt;&amp;nbsp; &amp;nbsp; &amp;nbsp; DATA_INICIO (data_hora)&lt;br&gt;&amp;nbsp; &amp;nbsp; &amp;nbsp; DATA_FIM (data_hora)" style="text;strokeColor=none;fillColor=none;align=left;verticalAlign=top;spacingLeft=4;spacingRight=4;overflow=hidden;rotatable=0;points=[[0,0.5],[1,0.5]];portConstraint=eastwest;whiteSpace=wrap;html=1;" parent="U6j0AtZgXaEGs56DfAOz-41" vertex="1">
          <mxGeometry y="26" width="270" height="98" as="geometry" />
        </mxCell>
        <mxCell id="GsczIjai0Ulv6Q7L4BJQ-1" value="1,1" style="text;html=1;strokeColor=none;fillColor=none;align=center;verticalAlign=middle;whiteSpace=wrap;rounded=0;" parent="1" vertex="1">
          <mxGeometry x="240" y="110" width="60" height="30" as="geometry" />
        </mxCell>
        <mxCell id="GsczIjai0Ulv6Q7L4BJQ-2" value="1,1" style="text;html=1;strokeColor=none;fillColor=none;align=center;verticalAlign=middle;whiteSpace=wrap;rounded=0;" parent="1" vertex="1">
          <mxGeometry x="490" y="90" width="60" height="30" as="geometry" />
        </mxCell>
        <mxCell id="GsczIjai0Ulv6Q7L4BJQ-10" style="edgeStyle=orthogonalEdgeStyle;rounded=0;orthogonalLoop=1;jettySize=auto;html=1;exitX=0.5;exitY=0;exitDx=0;exitDy=0;entryX=0.496;entryY=1.002;entryDx=0;entryDy=0;entryPerimeter=0;" parent="1" source="GsczIjai0Ulv6Q7L4BJQ-4" target="U6j0AtZgXaEGs56DfAOz-28" edge="1">
          <mxGeometry relative="1" as="geometry">
            <Array as="points">
              <mxPoint x="544" y="500" />
            </Array>
          </mxGeometry>
        </mxCell>
        <mxCell id="GsczIjai0Ulv6Q7L4BJQ-4" value="ITEM- PEDIDO_VENDA" style="swimlane;fontStyle=0;childLayout=stackLayout;horizontal=1;startSize=26;fillColor=none;horizontalStack=0;resizeParent=1;resizeParentMax=0;resizeLast=0;collapsible=1;marginBottom=0;whiteSpace=wrap;html=1;" parent="1" vertex="1">
          <mxGeometry x="410" y="500" width="260" height="70" as="geometry" />
        </mxCell>
        <mxCell id="GsczIjai0Ulv6Q7L4BJQ-6" value="PK COD_PEDIDO_VENDA (varchar)&lt;br&gt;FK COD_PRODUTO(varchar)&amp;nbsp; &amp;nbsp;" style="text;strokeColor=none;fillColor=none;align=left;verticalAlign=top;spacingLeft=4;spacingRight=4;overflow=hidden;rotatable=0;points=[[0,0.5],[1,0.5]];portConstraint=eastwest;whiteSpace=wrap;html=1;" parent="GsczIjai0Ulv6Q7L4BJQ-4" vertex="1">
          <mxGeometry y="26" width="260" height="44" as="geometry" />
        </mxCell>
        <mxCell id="GsczIjai0Ulv6Q7L4BJQ-7" value="1,1" style="text;html=1;strokeColor=none;fillColor=none;align=center;verticalAlign=middle;whiteSpace=wrap;rounded=0;" parent="1" vertex="1">
          <mxGeometry x="210" y="320" width="60" height="50" as="geometry" />
        </mxCell>
        <mxCell id="GsczIjai0Ulv6Q7L4BJQ-8" value="1,N" style="text;html=1;strokeColor=none;fillColor=none;align=center;verticalAlign=middle;whiteSpace=wrap;rounded=0;" parent="1" vertex="1">
          <mxGeometry x="40" y="400" width="60" height="30" as="geometry" />
        </mxCell>
        <mxCell id="GsczIjai0Ulv6Q7L4BJQ-9" value="1,1" style="text;html=1;strokeColor=none;fillColor=none;align=center;verticalAlign=middle;whiteSpace=wrap;rounded=0;" parent="1" vertex="1">
          <mxGeometry x="110" y="400" width="60" height="50" as="geometry" />
        </mxCell>
        <mxCell id="GsczIjai0Ulv6Q7L4BJQ-11" value="1,1" style="text;html=1;strokeColor=none;fillColor=none;align=center;verticalAlign=middle;whiteSpace=wrap;rounded=0;" parent="1" vertex="1">
          <mxGeometry x="-100" y="470" width="60" height="30" as="geometry" />
        </mxCell>
        <mxCell id="GsczIjai0Ulv6Q7L4BJQ-12" value="1,1" style="text;html=1;strokeColor=none;fillColor=none;align=center;verticalAlign=middle;whiteSpace=wrap;rounded=0;" parent="1" vertex="1">
          <mxGeometry x="-100" y="520" width="60" height="30" as="geometry" />
        </mxCell>
        <mxCell id="GsczIjai0Ulv6Q7L4BJQ-14" value="1,N" style="text;html=1;strokeColor=none;fillColor=none;align=center;verticalAlign=middle;whiteSpace=wrap;rounded=0;" parent="1" vertex="1">
          <mxGeometry x="530" y="410" width="60" height="30" as="geometry" />
        </mxCell>
        <mxCell id="GsczIjai0Ulv6Q7L4BJQ-15" value="1,1" style="text;html=1;strokeColor=none;fillColor=none;align=center;verticalAlign=middle;whiteSpace=wrap;rounded=0;" parent="1" vertex="1">
          <mxGeometry x="530" y="470" width="60" height="30" as="geometry" />
        </mxCell>
        <mxCell id="GsczIjai0Ulv6Q7L4BJQ-21" style="edgeStyle=orthogonalEdgeStyle;rounded=0;orthogonalLoop=1;jettySize=auto;html=1;exitX=0.5;exitY=0;exitDx=0;exitDy=0;" parent="1" source="GsczIjai0Ulv6Q7L4BJQ-17" target="GsczIjai0Ulv6Q7L4BJQ-6" edge="1">
          <mxGeometry relative="1" as="geometry">
            <Array as="points">
              <mxPoint x="545" y="650" />
              <mxPoint x="545" y="650" />
            </Array>
          </mxGeometry>
        </mxCell>
        <mxCell id="GsczIjai0Ulv6Q7L4BJQ-17" value="PEDIDO_VENDA" style="swimlane;fontStyle=0;childLayout=stackLayout;horizontal=1;startSize=26;fillColor=none;horizontalStack=0;resizeParent=1;resizeParentMax=0;resizeLast=0;collapsible=1;marginBottom=0;whiteSpace=wrap;html=1;" parent="1" vertex="1">
          <mxGeometry x="440" y="690" width="210" height="124" as="geometry" />
        </mxCell>
        <mxCell id="GsczIjai0Ulv6Q7L4BJQ-32" style="edgeStyle=orthogonalEdgeStyle;rounded=0;orthogonalLoop=1;jettySize=auto;html=1;exitX=0;exitY=0.5;exitDx=0;exitDy=0;" parent="GsczIjai0Ulv6Q7L4BJQ-17" source="GsczIjai0Ulv6Q7L4BJQ-18" edge="1">
          <mxGeometry relative="1" as="geometry">
            <mxPoint x="-70" y="75" as="targetPoint" />
          </mxGeometry>
        </mxCell>
        <mxCell id="GsczIjai0Ulv6Q7L4BJQ-18" value="PK COD_PEDIDO_VENDA (varchar)&lt;br&gt;FK COD_STATUS_PEDIDO(varchar)&lt;br&gt;FK COD_PRODUTO(varchar)&lt;br&gt;&amp;nbsp; &amp;nbsp; &amp;nbsp; DATA_PEDIDO (datra_hota)&lt;br&gt;&amp;nbsp; &amp;nbsp; &amp;nbsp; TEMPO_PEDIDO(int)&lt;br&gt;&amp;nbsp; &amp;nbsp; &amp;nbsp; VALOR_PEDIDO_VENDA(float)&lt;br&gt;&amp;nbsp;" style="text;strokeColor=none;fillColor=none;align=left;verticalAlign=top;spacingLeft=4;spacingRight=4;overflow=hidden;rotatable=0;points=[[0,0.5],[1,0.5]];portConstraint=eastwest;whiteSpace=wrap;html=1;" parent="GsczIjai0Ulv6Q7L4BJQ-17" vertex="1">
          <mxGeometry y="26" width="210" height="98" as="geometry" />
        </mxCell>
        <mxCell id="GsczIjai0Ulv6Q7L4BJQ-24" style="edgeStyle=orthogonalEdgeStyle;rounded=0;orthogonalLoop=1;jettySize=auto;html=1;exitX=0.5;exitY=0;exitDx=0;exitDy=0;entryX=1;entryY=0.5;entryDx=0;entryDy=0;" parent="1" source="GsczIjai0Ulv6Q7L4BJQ-22" target="GsczIjai0Ulv6Q7L4BJQ-6" edge="1">
          <mxGeometry relative="1" as="geometry" />
        </mxCell>
        <mxCell id="PMoaww0z13rKLKVssFOx-4" style="edgeStyle=orthogonalEdgeStyle;rounded=0;orthogonalLoop=1;jettySize=auto;html=1;exitX=1;exitY=0.25;exitDx=0;exitDy=0;" edge="1" parent="1" source="GsczIjai0Ulv6Q7L4BJQ-22">
          <mxGeometry relative="1" as="geometry">
            <mxPoint x="1020" y="570" as="targetPoint" />
            <Array as="points">
              <mxPoint x="1040" y="710" />
              <mxPoint x="1020" y="710" />
              <mxPoint x="1020" y="646" />
              <mxPoint x="1021" y="646" />
            </Array>
          </mxGeometry>
        </mxCell>
        <mxCell id="GsczIjai0Ulv6Q7L4BJQ-22" value="PRODUTO" style="swimlane;fontStyle=0;childLayout=stackLayout;horizontal=1;startSize=26;fillColor=none;horizontalStack=0;resizeParent=1;resizeParentMax=0;resizeLast=0;collapsible=1;marginBottom=0;whiteSpace=wrap;html=1;" parent="1" vertex="1">
          <mxGeometry x="780" y="710" width="260" height="100" as="geometry" />
        </mxCell>
        <mxCell id="GsczIjai0Ulv6Q7L4BJQ-23" value="PK COD_PRODUTO (varchar)&lt;br&gt;NOME_PRODUTO(varchar)&lt;br&gt;VALOR_PRODUTO(float)&lt;br&gt;FK COD_ESTOQUE9varchar)" style="text;strokeColor=none;fillColor=none;align=left;verticalAlign=top;spacingLeft=4;spacingRight=4;overflow=hidden;rotatable=0;points=[[0,0.5],[1,0.5]];portConstraint=eastwest;whiteSpace=wrap;html=1;" parent="GsczIjai0Ulv6Q7L4BJQ-22" vertex="1">
          <mxGeometry y="26" width="260" height="74" as="geometry" />
        </mxCell>
        <mxCell id="GsczIjai0Ulv6Q7L4BJQ-26" value="1,N" style="text;html=1;strokeColor=none;fillColor=none;align=center;verticalAlign=middle;whiteSpace=wrap;rounded=0;" parent="1" vertex="1">
          <mxGeometry x="670" y="520" width="60" height="30" as="geometry" />
        </mxCell>
        <mxCell id="GsczIjai0Ulv6Q7L4BJQ-27" value="0,N" style="text;html=1;strokeColor=none;fillColor=none;align=center;verticalAlign=middle;whiteSpace=wrap;rounded=0;" parent="1" vertex="1">
          <mxGeometry x="910" y="670" width="60" height="30" as="geometry" />
        </mxCell>
        <mxCell id="GsczIjai0Ulv6Q7L4BJQ-28" value="1,N" style="text;html=1;strokeColor=none;fillColor=none;align=center;verticalAlign=middle;whiteSpace=wrap;rounded=0;" parent="1" vertex="1">
          <mxGeometry x="490" y="570" width="60" height="30" as="geometry" />
        </mxCell>
        <mxCell id="GsczIjai0Ulv6Q7L4BJQ-25" style="edgeStyle=orthogonalEdgeStyle;rounded=0;orthogonalLoop=1;jettySize=auto;html=1;exitX=1;exitY=0.5;exitDx=0;exitDy=0;entryX=0;entryY=0.5;entryDx=0;entryDy=0;" parent="1" source="GsczIjai0Ulv6Q7L4BJQ-18" target="GsczIjai0Ulv6Q7L4BJQ-23" edge="1">
          <mxGeometry relative="1" as="geometry">
            <mxPoint x="770" y="765" as="targetPoint" />
            <Array as="points">
              <mxPoint x="720" y="765" />
              <mxPoint x="720" y="766" />
              <mxPoint x="780" y="766" />
            </Array>
          </mxGeometry>
        </mxCell>
        <mxCell id="GsczIjai0Ulv6Q7L4BJQ-30" value="1,n" style="text;html=1;strokeColor=none;fillColor=none;align=center;verticalAlign=middle;whiteSpace=wrap;rounded=0;" parent="1" vertex="1">
          <mxGeometry x="640" y="730" width="60" height="30" as="geometry" />
        </mxCell>
        <mxCell id="GsczIjai0Ulv6Q7L4BJQ-31" value="1,1" style="text;html=1;strokeColor=none;fillColor=none;align=center;verticalAlign=middle;whiteSpace=wrap;rounded=0;" parent="1" vertex="1">
          <mxGeometry x="730" y="770" width="60" height="30" as="geometry" />
        </mxCell>
        <mxCell id="GsczIjai0Ulv6Q7L4BJQ-33" value="STATUS_PEDIDO" style="swimlane;fontStyle=0;childLayout=stackLayout;horizontal=1;startSize=26;fillColor=none;horizontalStack=0;resizeParent=1;resizeParentMax=0;resizeLast=0;collapsible=1;marginBottom=0;whiteSpace=wrap;html=1;" parent="1" vertex="1">
          <mxGeometry x="110" y="730" width="260" height="80" as="geometry" />
        </mxCell>
        <mxCell id="GsczIjai0Ulv6Q7L4BJQ-34" value="PK COD_STATUS_PEDIDO (varchar)&lt;br&gt;FK COD_PEDIDO_VENDA (varchar)&lt;br&gt;STATUS_PEDIDO(varchar)&amp;nbsp; &amp;nbsp;" style="text;strokeColor=none;fillColor=none;align=left;verticalAlign=top;spacingLeft=4;spacingRight=4;overflow=hidden;rotatable=0;points=[[0,0.5],[1,0.5]];portConstraint=eastwest;whiteSpace=wrap;html=1;" parent="GsczIjai0Ulv6Q7L4BJQ-33" vertex="1">
          <mxGeometry y="26" width="260" height="54" as="geometry" />
        </mxCell>
        <mxCell id="GsczIjai0Ulv6Q7L4BJQ-35" value="1,1" style="text;html=1;strokeColor=none;fillColor=none;align=center;verticalAlign=middle;whiteSpace=wrap;rounded=0;" parent="1" vertex="1">
          <mxGeometry x="390" y="730" width="60" height="30" as="geometry" />
        </mxCell>
        <mxCell id="GsczIjai0Ulv6Q7L4BJQ-36" value="1,1" style="text;html=1;strokeColor=none;fillColor=none;align=center;verticalAlign=middle;whiteSpace=wrap;rounded=0;" parent="1" vertex="1">
          <mxGeometry x="360" y="760" width="60" height="30" as="geometry" />
        </mxCell>
        <mxCell id="GsczIjai0Ulv6Q7L4BJQ-51" style="edgeStyle=orthogonalEdgeStyle;rounded=0;orthogonalLoop=1;jettySize=auto;html=1;exitX=0.25;exitY=0;exitDx=0;exitDy=0;entryX=0.369;entryY=1.019;entryDx=0;entryDy=0;entryPerimeter=0;" parent="1" source="GsczIjai0Ulv6Q7L4BJQ-37" target="GsczIjai0Ulv6Q7L4BJQ-46" edge="1">
          <mxGeometry relative="1" as="geometry">
            <Array as="points">
              <mxPoint x="1060" y="430" />
            </Array>
          </mxGeometry>
        </mxCell>
        <mxCell id="GsczIjai0Ulv6Q7L4BJQ-37" value="ESTOQUE" style="swimlane;fontStyle=0;childLayout=stackLayout;horizontal=1;startSize=26;fillColor=none;horizontalStack=0;resizeParent=1;resizeParentMax=0;resizeLast=0;collapsible=1;marginBottom=0;whiteSpace=wrap;html=1;" parent="1" vertex="1">
          <mxGeometry x="980" y="430" width="260" height="140" as="geometry" />
        </mxCell>
        <mxCell id="GsczIjai0Ulv6Q7L4BJQ-55" style="edgeStyle=orthogonalEdgeStyle;rounded=0;orthogonalLoop=1;jettySize=auto;html=1;exitX=1;exitY=0.5;exitDx=0;exitDy=0;entryX=0.5;entryY=1;entryDx=0;entryDy=0;entryPerimeter=0;" parent="1" source="GsczIjai0Ulv6Q7L4BJQ-38" edge="1" target="GsczIjai0Ulv6Q7L4BJQ-54">
          <mxGeometry relative="1" as="geometry">
            <mxPoint x="1500" y="380" as="targetPoint" />
          </mxGeometry>
        </mxCell>
        <mxCell id="GsczIjai0Ulv6Q7L4BJQ-38" value="PK COD_ESTOQUE (varchar)&lt;br&gt;QTD_PRODUTO_ESTOQUE (int)&lt;br&gt;FK COD_FORNECEDOR (varchar)&lt;br&gt;FK_COD_TIPO_PRODUTO(varchar)&lt;br&gt;FK_COD_PEDIDO_COMPRA(varchar)&lt;br&gt;FK COD_PRODUTO(varchar)" style="text;strokeColor=none;fillColor=none;align=left;verticalAlign=top;spacingLeft=4;spacingRight=4;overflow=hidden;rotatable=0;points=[[0,0.5],[1,0.5]];portConstraint=eastwest;whiteSpace=wrap;html=1;" parent="1" vertex="1">
          <mxGeometry x="980" y="456" width="260" height="104" as="geometry" />
        </mxCell>
        <mxCell id="GsczIjai0Ulv6Q7L4BJQ-44" value="TIPO_PRODUTO" style="swimlane;fontStyle=0;childLayout=stackLayout;horizontal=1;startSize=26;fillColor=none;horizontalStack=0;resizeParent=1;resizeParentMax=0;resizeLast=0;collapsible=1;marginBottom=0;whiteSpace=wrap;html=1;" parent="1" vertex="1">
          <mxGeometry x="960" y="230" width="270" height="80" as="geometry" />
        </mxCell>
        <mxCell id="GsczIjai0Ulv6Q7L4BJQ-45" value="PK&amp;nbsp; COD_TIPO_PRODUTO (varchar)" style="text;strokeColor=none;fillColor=none;align=left;verticalAlign=top;spacingLeft=4;spacingRight=4;overflow=hidden;rotatable=0;points=[[0,0.5],[1,0.5]];portConstraint=eastwest;whiteSpace=wrap;html=1;" parent="GsczIjai0Ulv6Q7L4BJQ-44" vertex="1">
          <mxGeometry y="26" width="270" height="26" as="geometry" />
        </mxCell>
        <mxCell id="GsczIjai0Ulv6Q7L4BJQ-46" value="DESCRICAO_PRODUTO(varchar)" style="text;strokeColor=none;fillColor=none;align=left;verticalAlign=top;spacingLeft=4;spacingRight=4;overflow=hidden;rotatable=0;points=[[0,0.5],[1,0.5]];portConstraint=eastwest;whiteSpace=wrap;html=1;" parent="GsczIjai0Ulv6Q7L4BJQ-44" vertex="1">
          <mxGeometry y="52" width="270" height="28" as="geometry" />
        </mxCell>
        <mxCell id="GsczIjai0Ulv6Q7L4BJQ-49" value="0,N" style="text;html=1;strokeColor=none;fillColor=none;align=center;verticalAlign=middle;whiteSpace=wrap;rounded=0;" parent="1" vertex="1">
          <mxGeometry x="1050" y="400" width="60" height="30" as="geometry" />
        </mxCell>
        <mxCell id="GsczIjai0Ulv6Q7L4BJQ-50" value="1,1" style="text;html=1;strokeColor=none;fillColor=none;align=center;verticalAlign=middle;whiteSpace=wrap;rounded=0;" parent="1" vertex="1">
          <mxGeometry x="1050" y="310" width="60" height="30" as="geometry" />
        </mxCell>
        <mxCell id="PMoaww0z13rKLKVssFOx-15" style="edgeStyle=orthogonalEdgeStyle;rounded=0;orthogonalLoop=1;jettySize=auto;html=1;exitX=0.5;exitY=0;exitDx=0;exitDy=0;entryX=0.003;entryY=0.372;entryDx=0;entryDy=0;entryPerimeter=0;" edge="1" parent="1" source="GsczIjai0Ulv6Q7L4BJQ-52" target="PMoaww0z13rKLKVssFOx-12">
          <mxGeometry relative="1" as="geometry" />
        </mxCell>
        <mxCell id="GsczIjai0Ulv6Q7L4BJQ-52" value="PEDIDO_COMPRA" style="swimlane;fontStyle=0;childLayout=stackLayout;horizontal=1;startSize=26;fillColor=none;horizontalStack=0;resizeParent=1;resizeParentMax=0;resizeLast=0;collapsible=1;marginBottom=0;whiteSpace=wrap;html=1;" parent="1" vertex="1">
          <mxGeometry x="1350" y="230" width="270" height="100" as="geometry" />
        </mxCell>
        <mxCell id="GsczIjai0Ulv6Q7L4BJQ-54" value="PK COD_PEDIDO_COMPRA (varchar)&lt;br&gt;VALOR_PEDIDO-COMPRA(floar)&lt;br&gt;FK COD_PRODUTO(varchar)&lt;br&gt;FK COD_FORNECEDOR(varhar)" style="text;strokeColor=none;fillColor=none;align=left;verticalAlign=top;spacingLeft=4;spacingRight=4;overflow=hidden;rotatable=0;points=[[0,0.5],[1,0.5]];portConstraint=eastwest;whiteSpace=wrap;html=1;" parent="GsczIjai0Ulv6Q7L4BJQ-52" vertex="1">
          <mxGeometry y="26" width="270" height="74" as="geometry" />
        </mxCell>
        <mxCell id="GsczIjai0Ulv6Q7L4BJQ-56" style="edgeStyle=orthogonalEdgeStyle;rounded=0;orthogonalLoop=1;jettySize=auto;html=1;exitX=1;exitY=0.5;exitDx=0;exitDy=0;entryX=0.862;entryY=0.996;entryDx=0;entryDy=0;entryPerimeter=0;" parent="1" source="GsczIjai0Ulv6Q7L4BJQ-23" target="GsczIjai0Ulv6Q7L4BJQ-54" edge="1">
          <mxGeometry relative="1" as="geometry" />
        </mxCell>
        <mxCell id="PMoaww0z13rKLKVssFOx-1" value="1,1" style="text;html=1;strokeColor=none;fillColor=none;align=center;verticalAlign=middle;whiteSpace=wrap;rounded=0;" vertex="1" parent="1">
          <mxGeometry x="1030" y="770" width="60" height="30" as="geometry" />
        </mxCell>
        <mxCell id="PMoaww0z13rKLKVssFOx-3" value="1,1" style="text;html=1;align=center;verticalAlign=middle;resizable=0;points=[];autosize=1;strokeColor=none;fillColor=none;" vertex="1" parent="1">
          <mxGeometry x="1440" y="330" width="40" height="30" as="geometry" />
        </mxCell>
        <mxCell id="PMoaww0z13rKLKVssFOx-5" value="0,N" style="text;html=1;strokeColor=none;fillColor=none;align=center;verticalAlign=middle;whiteSpace=wrap;rounded=0;" vertex="1" parent="1">
          <mxGeometry x="1230" y="480" width="60" height="30" as="geometry" />
        </mxCell>
        <mxCell id="PMoaww0z13rKLKVssFOx-7" value="1,N" style="text;html=1;strokeColor=none;fillColor=none;align=center;verticalAlign=middle;whiteSpace=wrap;rounded=0;" vertex="1" parent="1">
          <mxGeometry x="1530" y="340" width="60" height="30" as="geometry" />
        </mxCell>
        <mxCell id="PMoaww0z13rKLKVssFOx-8" value="1,1" style="text;html=1;strokeColor=none;fillColor=none;align=center;verticalAlign=middle;whiteSpace=wrap;rounded=0;" vertex="1" parent="1">
          <mxGeometry x="1020" y="680" width="60" height="30" as="geometry" />
        </mxCell>
        <mxCell id="PMoaww0z13rKLKVssFOx-9" value="0,n" style="text;html=1;strokeColor=none;fillColor=none;align=center;verticalAlign=middle;whiteSpace=wrap;rounded=0;" vertex="1" parent="1">
          <mxGeometry x="1010" y="570" width="60" height="30" as="geometry" />
        </mxCell>
        <mxCell id="PMoaww0z13rKLKVssFOx-10" value="1,n" style="text;html=1;strokeColor=none;fillColor=none;align=center;verticalAlign=middle;whiteSpace=wrap;rounded=0;" vertex="1" parent="1">
          <mxGeometry x="650" y="740" width="60" height="30" as="geometry" />
        </mxCell>
        <mxCell id="PMoaww0z13rKLKVssFOx-11" value="FORNECEDOR" style="swimlane;fontStyle=0;childLayout=stackLayout;horizontal=1;startSize=26;fillColor=none;horizontalStack=0;resizeParent=1;resizeParentMax=0;resizeLast=0;collapsible=1;marginBottom=0;whiteSpace=wrap;html=1;" vertex="1" parent="1">
          <mxGeometry x="1360" y="10" width="270" height="100" as="geometry" />
        </mxCell>
        <mxCell id="PMoaww0z13rKLKVssFOx-12" value="&lt;span style=&quot;color: rgb(240, 240, 240); font-family: Helvetica; font-size: 12px; font-style: normal; font-variant-ligatures: normal; font-variant-caps: normal; font-weight: 400; letter-spacing: normal; orphans: 2; text-align: left; text-indent: 0px; text-transform: none; widows: 2; word-spacing: 0px; -webkit-text-stroke-width: 0px; background-color: rgb(27, 29, 30); text-decoration-thickness: initial; text-decoration-style: initial; text-decoration-color: initial; float: none; display: inline !important;&quot;&gt;COD_FORNECEDOR (varchar)&lt;/span&gt;&lt;br style=&quot;border-color: rgb(0, 0, 0); color: rgb(240, 240, 240); font-family: Helvetica; font-size: 12px; font-style: normal; font-variant-ligatures: normal; font-variant-caps: normal; font-weight: 400; letter-spacing: normal; orphans: 2; text-align: left; text-indent: 0px; text-transform: none; widows: 2; word-spacing: 0px; -webkit-text-stroke-width: 0px; background-color: rgb(27, 29, 30); text-decoration-thickness: initial; text-decoration-style: initial; text-decoration-color: initial;&quot;&gt;&lt;span style=&quot;color: rgb(240, 240, 240); font-family: Helvetica; font-size: 12px; font-style: normal; font-variant-ligatures: normal; font-variant-caps: normal; font-weight: 400; letter-spacing: normal; orphans: 2; text-align: left; text-indent: 0px; text-transform: none; widows: 2; word-spacing: 0px; -webkit-text-stroke-width: 0px; background-color: rgb(27, 29, 30); text-decoration-thickness: initial; text-decoration-style: initial; text-decoration-color: initial; float: none; display: inline !important;&quot;&gt;NOME_FORNECEDOR )varchar)&lt;/span&gt;&lt;br style=&quot;border-color: rgb(0, 0, 0); color: rgb(240, 240, 240); font-family: Helvetica; font-size: 12px; font-style: normal; font-variant-ligatures: normal; font-variant-caps: normal; font-weight: 400; letter-spacing: normal; orphans: 2; text-align: left; text-indent: 0px; text-transform: none; widows: 2; word-spacing: 0px; -webkit-text-stroke-width: 0px; background-color: rgb(27, 29, 30); text-decoration-thickness: initial; text-decoration-style: initial; text-decoration-color: initial;&quot;&gt;&lt;span style=&quot;color: rgb(240, 240, 240); font-family: Helvetica; font-size: 12px; font-style: normal; font-variant-ligatures: normal; font-variant-caps: normal; font-weight: 400; letter-spacing: normal; orphans: 2; text-align: left; text-indent: 0px; text-transform: none; widows: 2; word-spacing: 0px; -webkit-text-stroke-width: 0px; background-color: rgb(27, 29, 30); text-decoration-thickness: initial; text-decoration-style: initial; text-decoration-color: initial; float: none; display: inline !important;&quot;&gt;TELEFONE_FORNECEDOR (varchar)&lt;br&gt;FK_COD_PEDIDO_COMPRA(varchar)&lt;br&gt;&lt;/span&gt;" style="text;strokeColor=none;fillColor=none;align=left;verticalAlign=top;spacingLeft=4;spacingRight=4;overflow=hidden;rotatable=0;points=[[0,0.5],[1,0.5]];portConstraint=eastwest;whiteSpace=wrap;html=1;" vertex="1" parent="PMoaww0z13rKLKVssFOx-11">
          <mxGeometry y="26" width="270" height="74" as="geometry" />
        </mxCell>
        <mxCell id="PMoaww0z13rKLKVssFOx-16" value="1,N" style="text;html=1;strokeColor=none;fillColor=none;align=center;verticalAlign=middle;whiteSpace=wrap;rounded=0;" vertex="1" parent="1">
          <mxGeometry x="1280" y="30" width="60" height="30" as="geometry" />
        </mxCell>
      </root>
    </mxGraphModel>
  </diagram>
</mxfile>
